<svg xmlns="http://www.w3.org/2000/svg" viewBox="0 0 2160 469.85"><defs><style>.cls-1{stroke:#000;stroke-miterlimit:10;stroke-width:29px;}.cls-2{font-size:463px;font-family:Norwester-Regular, Norwester;}.cls-3{letter-spacing:-0.09em;}</style></defs><title>Risorsa 2</title><g id="Livello_2" data-name="Livello 2"><g id="Livello_1-2" data-name="Livello 1"><path d="M63,266.22c0-49.88,28.65-93.1,70.5-114.43a129.4,129.4,0,0,1,16.57-7,66.11,66.11,0,0,1,29.88-7.19,67,67,0,0,1,47.86,20.26l78.84-81.66c-32.52-33.42-77.28-54.07-126.7-54.07C80.55,22.15,0,105.57,0,208.49S80.55,394.83,179.91,394.83c2.08,0,4.15-.09,6.22-.16C117.53,391.31,63,335.09,63,266.22Z"/><path d="M311.21,318.19a137.45,137.45,0,0,1-70.07,18.91c-71.61,0-129.65-53.3-129.65-119.06,0-1.74.13-3.45.21-5.18.73-15.55,2.94-31.41,11.33-43.75,7.4-10.9,16.06-18.79,27-24.31a129.4,129.4,0,0,0-16.57,7C91.6,173.12,63,216.34,63,266.22c0,68.87,54.58,125.09,123.17,128.45,2.15.1,98.47,0,152.35-98.1A128,128,0,0,1,311.21,318.19Z"/><path d="M312.74,209.41H195.64c33.66,16.64,22.94,69.18-14.35,69.94h-1.38c-36.37,0-66-29.4-68.22-66.5-.08,1.72-.21,3.43-.21,5.18,0,65.75,58,119.06,129.65,119.06a137.45,137.45,0,0,0,70.07-18.91,128,128,0,0,0,27.27-21.62,190.74,190.74,0,0,0,21.32-87.15Z"/><path d="M88.1,342.31c-1.05-2-52.33-99.39,28.85-161.07l.1-.1a53.66,53.66,0,0,1,6-12c7.4-10.9,16.06-18.79,27-24.31a129.54,129.54,0,0,0-16.57,7C91.6,173.12,63,216.34,63,266.22A127.31,127.31,0,0,0,88.1,342.31Z"/><path d="M278.83,331.95C193,342.06,162.65,290.84,155.26,274.57c-23.5-9.43-40.63-31.92-43.27-58.88l-.39-.52c-.05,1-.12,1.9-.12,2.87,0,65.75,58,119.06,129.65,119.06A139.91,139.91,0,0,0,278.83,331.95Z"/><path class="cls-1" d="M834.54,30.3c-96.22,0-174.21,80.78-174.21,180.44s78,180.44,174.21,180.44,174.21-80.78,174.21-180.44S930.76,30.3,834.54,30.3Zm13.15,333V351.18a13.16,13.16,0,1,0-26.3,0v12.13c-71.22-6.53-128.07-65.55-134.18-139.37h11.33a13.63,13.63,0,0,0,0-27.24H687.27c6.48-73.43,63.17-132,134.12-138.52V69.46a13.16,13.16,0,1,0,26.3,0V58.18c70.95,6.51,127.64,65.09,134.12,138.52H970.54a13.63,13.63,0,0,0,0,27.24h11.33C975.76,297.76,918.91,356.78,847.69,363.31Z"/><path class="cls-1" d="M912.86,122.84,835,207.36l-.44,0a14.43,14.43,0,0,0-2.85.29l-65.18-51a9.64,9.64,0,0,0-13.79,2,10.44,10.44,0,0,0,1.93,14.31l65.16,51a14.77,14.77,0,0,0,29.52-1.28c0-.41,0-.8-.06-1.2l77.87-84.53a10.47,10.47,0,0,0-.33-14.44A9.62,9.62,0,0,0,912.86,122.84Z"/><text class="cls-2" transform="translate(358.2 393.55) scale(1.24 1)">R</text><text class="cls-2" transform="translate(1023.42 398.55) scale(1.24 1)">N<tspan class="cls-3" x="244" y="0">T</tspan><tspan x="415.3" y="0">AB</tspan></text><rect x="191.17" y="192.45" width="168.96" height="40" rx="15.04" ry="15.04"/></g></g></svg>