<?xml version="1.0" encoding="UTF-8"?>
<svg width="1896px" height="391px" viewBox="0 0 1896 391" version="1.1" xmlns="http://www.w3.org/2000/svg" xmlns:xlink="http://www.w3.org/1999/xlink">
    <!-- Generator: Sketch 40.2 (33826) - http://www.bohemiancoding.com/sketch -->
    <title>Group 2</title>
    <desc>Created with Sketch.</desc>
    <defs></defs>
    <g id="Page-1" stroke="none" stroke-width="1" fill="none" fill-rule="evenodd">
        <g id="Group-2" transform="translate(0.000000, 7.000000)" fill="#000000">
            <g id="Group">
                <g id="grontab">
                    <g id="Livello_2">
                        <g id="Livello_1-2">
                            <path d="M63,244.22 C63,194.34 91.65,151.12 133.5,129.79 C138.854272,127.075127 144.390979,124.736144 150.07,122.79 C159.326901,118.079388 169.563479,115.616169 179.95,115.6 C197.979469,115.638758 215.23244,122.942251 227.81,135.86 L306.65,54.2 C274.13,20.78 229.37,0.13 179.95,0.13 C80.55,0.15 0,83.57 0,186.49 C0,289.41 80.55,372.83 179.91,372.83 C181.99,372.83 184.06,372.74 186.13,372.67 C117.53,369.31 63,313.09 63,244.22 L63,244.22 Z" id="Shape"></path>
                            <path d="M311.21,296.19 C289.969379,308.657293 265.769039,315.188311 241.14,315.1 C169.53,315.1 111.49,261.8 111.49,196.04 C111.49,194.3 111.62,192.59 111.7,190.86 C112.43,175.31 114.64,159.45 123.03,147.11 C130.43,136.21 139.09,128.32 150.03,122.8 C144.350979,124.746144 138.814272,127.085127 133.46,129.8 C91.6,151.12 63,194.34 63,244.22 C63,313.09 117.58,369.31 186.17,372.67 C188.32,372.77 284.64,372.67 338.52,274.57 C330.444328,282.987405 321.255941,290.261404 311.21,296.19 L311.21,296.19 Z" id="Shape"></path>
                            <path d="M312.74,187.41 L195.64,187.41 C229.3,204.05 218.58,256.59 181.29,257.35 L179.91,257.35 C143.54,257.35 113.91,227.95 111.69,190.85 C111.61,192.57 111.48,194.28 111.48,196.03 C111.48,261.78 169.48,315.09 241.13,315.09 C265.759039,315.178311 289.959379,308.647293 311.2,296.18 C321.231852,290.248392 330.406627,282.974514 338.47,274.56 C352.405005,247.618413 359.713852,217.741959 359.79,187.41 L312.74,187.41 Z" id="Shape"></path>
                            <path d="M88.1,320.31 C87.05,318.31 35.77,220.92 116.95,159.24 L117.05,159.14 C118.540103,154.904741 120.555854,150.873238 123.05,147.14 C130.45,136.24 139.11,128.35 150.05,122.83 C144.37114,124.776567 138.834462,127.115537 133.48,129.83 C91.6,151.12 63,194.34 63,244.22 C62.9593441,271.623713 71.7621244,298.309114 88.1,320.31 L88.1,320.31 Z" id="Shape"></path>
                            <path d="M278.83,309.95 C193,320.06 162.65,268.84 155.26,252.57 C131.76,243.14 114.63,220.65 111.99,193.69 L111.6,193.17 C111.55,194.17 111.48,195.07 111.48,196.04 C111.48,261.79 169.48,315.1 241.13,315.1 C253.872554,315.108141 266.556491,313.375455 278.83,309.95 L278.83,309.95 Z" id="Shape"></path>
                            <path d="M790.54,8.3 C694.32,8.3 616.33,89.08 616.33,188.74 C616.33,288.4 694.33,369.18 790.54,369.18 C886.75,369.18 964.75,288.4 964.75,188.74 C964.75,89.08 886.76,8.3 790.54,8.3 L790.54,8.3 Z M803.69,341.3 L803.69,329.18 C803.878025,324.359636 801.413584,319.822745 797.267549,317.356643 C793.121514,314.890542 787.958486,314.890542 783.812451,317.356643 C779.666416,319.822745 777.201975,324.359636 777.39,329.18 L777.39,341.31 C706.17,334.78 649.32,275.76 643.21,201.94 L654.54,201.94 C661.859157,201.659478 667.647985,195.644531 667.647985,188.32 C667.647985,180.995469 661.859157,174.980522 654.54,174.7 L643.27,174.7 C649.75,101.27 706.44,42.7 777.39,36.18 L777.39,47.46 C777.201975,52.2803641 779.666416,56.8172552 783.812451,59.2833567 C787.958486,61.7494581 793.121514,61.7494581 797.267549,59.2833567 C801.413584,56.8172552 803.878025,52.2803641 803.69,47.46 L803.69,36.18 C874.64,42.69 931.33,101.27 937.81,174.7 L926.54,174.7 C919.220843,174.980522 913.432015,180.995469 913.432015,188.32 C913.432015,195.644531 919.220843,201.659478 926.54,201.94 L937.87,201.94 C931.76,275.76 874.91,334.78 803.69,341.31 L803.69,341.3 Z" id="Shape" stroke="#000000" stroke-width="29"></path>
                            <path d="M868.86,100.84 L791,185.36 L790.56,185.36 C789.602733,185.361895 788.648029,185.45904 787.71,185.65 L722.53,134.65 C720.457207,133.028907 717.811815,132.325614 715.207633,132.703305 C712.603451,133.080996 710.266854,134.506841 708.74,136.65 C705.449112,141.16761 706.29988,147.475636 710.67,150.96 L775.83,201.96 C776.183462,210.111723 783.078277,216.433462 791.23,216.08 C799.381723,215.726538 805.703462,208.831723 805.35,200.68 C805.35,200.27 805.35,199.88 805.29,199.48 L883.16,114.95 C886.919155,110.819132 886.773939,104.464828 882.83,100.51 C880.96825,98.6336744 878.416481,97.606053 875.77398,97.6684743 C873.131478,97.7308956 870.631077,98.8778596 868.86,100.84 L868.86,100.84 Z" id="Shape" stroke="#000000" stroke-width="29"></path>
                            <path d="M571.643,67.822 C571.643,24.3 548.493,1.15 504.971,1.15 L388.758,1.15 C384.128,1.15 381.35,3.928 381.35,8.558 L381.35,364.142 C381.35,368.772 384.128,371.55 388.758,371.55 L436.91,371.55 C441.54,371.55 444.318,368.772 444.318,364.142 L444.318,247.466 L476.265,247.466 L507.286,365.068 C508.212,369.235 510.527,371.55 515.157,371.55 L563.309,371.55 C568.402,371.55 571.18,368.772 569.791,363.216 L537.844,241.91 C560.068,232.187 571.643,211.815 571.643,180.794 L571.643,67.822 Z M444.318,186.35 L444.318,62.266 L490.155,62.266 C502.193,62.266 508.675,68.748 508.675,80.786 L508.675,167.83 C508.675,179.868 502.193,186.35 490.155,186.35 L444.318,186.35 Z" id="R"></path>
                            <path d="M1158.711,6.15 C1153.618,6.15 1151.303,8.928 1151.303,13.558 L1151.303,208.944 L1148.525,208.944 L1078.149,12.169 C1076.76,8.002 1073.982,6.15 1069.815,6.15 L1023.978,6.15 C1019.348,6.15 1016.57,8.928 1016.57,13.558 L1016.57,369.142 C1016.57,373.772 1019.348,376.55 1023.978,376.55 L1072.13,376.55 C1077.223,376.55 1079.538,373.772 1079.538,369.142 L1079.538,172.83 L1081.853,172.83 L1152.692,370.531 C1154.081,374.698 1156.859,376.55 1161.026,376.55 L1206.863,376.55 C1211.493,376.55 1214.271,373.772 1214.271,369.142 L1214.271,13.558 C1214.271,8.928 1211.493,6.15 1206.863,6.15 L1158.711,6.15 Z" id="N"></path>
                            <path d="M1265.298,6.6 C1260.668,6.6 1257.89,9.378 1257.89,14.008 L1257.89,60.308 C1257.89,64.938 1260.668,67.716 1265.298,67.716 L1319.006,67.716 L1319.006,369.592 C1319.006,374.685 1321.784,377 1326.414,377 L1374.566,377 C1379.659,377 1381.974,374.685 1381.974,369.592 L1381.974,67.716 L1435.682,67.716 C1440.775,67.716 1443.09,64.938 1443.09,60.308 L1443.09,14.008 C1443.09,9.378 1440.775,6.6 1435.682,6.6 L1265.298,6.6 Z M1661.626,377 C1667.182,377 1669.034,374.222 1668.108,369.129 L1591.25,13.082 C1590.324,8.452 1587.546,6.6 1583.379,6.6 L1519.022,6.6 C1514.855,6.6 1512.077,8.452 1511.151,13.082 L1434.293,369.129 C1432.904,374.222 1435.219,377 1440.312,377 L1489.853,377 C1494.02,377 1496.335,374.685 1497.261,370.518 L1509.762,302.92 L1592.176,302.92 L1605.14,370.518 C1606.066,374.685 1608.381,377 1612.548,377 L1661.626,377 Z M1580.601,249.212 L1521.337,249.212 L1550.969,87.625 L1580.601,249.212 Z M1895.441,73.272 C1895.441,29.75 1871.828,6.6 1828.306,6.6 L1717.186,6.6 C1712.556,6.6 1709.778,8.915 1709.778,14.008 L1709.778,369.592 C1709.778,374.222 1712.556,377 1717.186,377 L1828.306,377 C1871.828,377 1895.441,353.85 1895.441,310.328 L1895.441,225.136 C1895.441,208.005 1882.94,195.041 1866.272,192.263 L1866.272,191.337 C1882.94,188.559 1895.441,175.595 1895.441,158.464 L1895.441,73.272 Z M1833.862,143.185 C1833.862,154.76 1827.38,161.242 1815.342,161.242 L1773.209,161.242 L1773.209,67.716 L1815.342,67.716 C1827.843,67.716 1833.862,74.198 1833.862,86.236 L1833.862,143.185 Z M1833.862,297.364 C1833.862,309.865 1827.38,315.884 1815.342,315.884 L1773.209,315.884 L1773.209,222.358 L1815.342,222.358 C1827.843,222.358 1833.862,228.84 1833.862,240.878 L1833.862,297.364 Z" id="TAB"></path>
                            <rect id="Rectangle-path" x="191.17" y="170.45" width="168.96" height="40" rx="15.04"></rect>
                        </g>
                    </g>
                </g>
            </g>
        </g>
    </g>
</svg>